# File created by Blade
# Date/Time:  Thu Jan 22 16:16:06 2015
# Frame Rate: 120.000 fps
#------------------------------------------------------
:FULLY-SPECIFIED
:DEGREES
643
root 0.397194 34.533363 -6.718715 34.219528 -17.195796 -1.990724
RightUpLeg -48.141011 -5.831617 -16.042257
RightLeg 5.600259 -0.000000 -0.000000
RightFoot -1.314138 -21.527339 29.535844
RightToeBase 14.366863 -0.000000 -0.000000
LeftUpLeg -29.023147 26.357279 14.936328
LeftLeg -4.997235 -0.000000 0.000000
LeftFoot 1.619023 18.845599 -35.705631
LeftToeBase 11.898033 -0.000000 -0.000000
Spine 72.877179 -15.208107 -2.343160
RightShoulder 12.852796 3.526718 -38.202869
RightArm 61.255218 11.969652 34.227456
RightForeArm -17.554502 -0.000000 43.125199
RightHand 14.092960 -0.000000 -23.163978
RightHandThumb1 -24.326973 -0.000000 -32.862282
LeftShoulder 9.008553 -2.549757 45.731448
LeftArm 72.814790 -7.741975 -55.561821
LeftForeArm 59.148720 -0.000000 28.948911
LeftHand -19.161421 -0.000000 19.229088
LeftHandThumb1 -26.253704 0.000000 33.147579
Head 1.970321 20.994766 -7.423033
644
root 0.430987 34.537946 -6.727714 33.970801 -16.864793 -1.880845
RightUpLeg -47.500947 -5.987216 -16.146339
RightLeg 4.981523 -0.000000 -0.000000
RightFoot -1.170286 -21.796901 29.586958
RightToeBase 14.361051 -0.000000 -0.000000
LeftUpLeg -29.055695 26.146438 14.905089
LeftLeg -4.925493 -0.000000 0.000000
LeftFoot 1.754630 18.642927 -35.583524
LeftToeBase 11.842078 -0.000000 -0.000000
Spine 72.794175 -15.035442 -2.462030
RightShoulder 12.960904 3.459258 -38.264893
RightArm 61.403092 11.744413 34.158133
RightForeArm -17.633024 -0.000000 43.102539
RightHand 14.138228 0.000000 -23.416988
RightHandThumb1 -24.326973 -0.000000 -32.862282
LeftShoulder 9.002847 -2.291789 45.681076
LeftArm 72.688541 -7.588258 -55.590305
LeftForeArm 58.841435 0.000000 28.807139
LeftHand -19.187131 -0.000000 19.705916
LeftHandThumb1 -26.253704 0.000000 33.147579
Head 2.056396 20.895752 -7.475708
645
root 0.469457 34.543521 -6.732879 33.727966 -16.489395 -1.731424
RightUpLeg -46.855506 -6.251509 -16.231103
RightLeg 4.365022 -0.000000 -0.000000
RightFoot -0.993679 -21.949994 29.628457
RightToeBase 14.645649 -0.000000 -0.000000
LeftUpLeg -28.981189 25.638832 14.996014
LeftLeg -5.004472 -0.000000 0.000000
LeftFoot 1.792410 18.724990 -35.509908
LeftToeBase 11.838425 -0.000000 -0.000000
Spine 72.751797 -14.925116 -2.511478
RightShoulder 12.934663 3.622643 -38.338381
RightArm 61.486477 11.338637 34.184353
RightForeArm -17.849474 -0.000000 43.096104
RightHand 14.198223 -0.000000 -23.056264
RightHandThumb1 -24.326973 -0.000000 -32.862282
LeftShoulder 9.010852 -2.215070 45.592516
LeftArm 72.400300 -7.431180 -55.872063
LeftForeArm 58.851845 0.000000 28.914287
LeftHand -19.299166 -0.000000 19.589890
LeftHandThumb1 -26.253704 0.000000 33.147579
Head 1.993190 20.749349 -7.598165
646
root 0.504023 34.546944 -6.742302 33.530422 -16.085792 -1.599182
RightUpLeg -46.255979 -6.508378 -16.302452
RightLeg 3.770466 -0.000000 -0.000000
RightFoot -0.872918 -22.167667 29.681515
RightToeBase 14.474022 -0.000000 -0.000000
LeftUpLeg -28.856978 24.932045 15.227745
LeftLeg -5.179887 -0.000000 0.000000
LeftFoot 1.733961 19.035640 -35.487377
LeftToeBase 11.828274 -0.000000 -0.000000
Spine 72.648837 -14.800358 -2.468337
RightShoulder 12.892516 4.020421 -38.364048
RightArm 61.418130 10.694986 34.163269
RightForeArm -17.849899 0.000000 43.031648
RightHand 14.339473 -0.000000 -23.018237
RightHandThumb1 -24.326973 -0.000000 -32.862282
LeftShoulder 9.074005 -2.206080 45.536119
LeftArm 72.114390 -7.256988 -56.005122
LeftForeArm 58.714278 -0.000000 28.866471
LeftHand -19.427984 0.000000 19.871440
LeftHandThumb1 -26.253704 0.000000 33.147579
Head 1.982196 20.534075 -7.707103
647
root 0.532391 34.550665 -6.753584 33.319425 -15.789140 -1.488514
RightUpLeg -45.679584 -6.568933 -16.488009
RightLeg 3.205008 -0.000000 -0.000000
RightFoot -0.784836 -22.498221 29.730317
RightToeBase 14.454723 -0.000000 -0.000000
LeftUpLeg -28.835450 24.691347 15.216852
LeftLeg -5.226704 -0.000000 0.000000
LeftFoot 1.881757 18.926188 -35.428145
LeftToeBase 11.872619 -0.000000 -0.000000
Spine 72.596184 -14.511231 -2.525510
RightShoulder 12.922875 3.525464 -38.408979
RightArm 61.822548 10.860384 34.009393
RightForeArm -17.897734 -0.000000 42.986192
RightHand 14.233082 -0.000000 -23.130542
RightHandThumb1 -24.326973 -0.000000 -32.862282
LeftShoulder 9.115418 -2.042010 45.530483
LeftArm 71.963841 -7.172267 -55.974186
LeftForeArm 58.799141 0.000000 28.673538
LeftHand -19.513060 -0.000000 20.382552
LeftHandThumb1 -26.253704 0.000000 33.147579
Head 1.998876 20.397525 -7.650170
